<mxfile host="app.diagrams.net" modified="2023-11-24T16:33:23.683Z" agent="Mozilla/5.0 (Windows NT 10.0; Win64; x64) AppleWebKit/537.36 (KHTML, like Gecko) Chrome/119.0.0.0 Safari/537.36" etag="azgwM2hcsMNmlXoVly_m" version="22.1.3" type="device">
  <diagram name="Page-1" id="W1aDHb2TWzxV6eYoIDEH">
    <mxGraphModel dx="1434" dy="758" grid="1" gridSize="10" guides="1" tooltips="1" connect="1" arrows="1" fold="1" page="1" pageScale="1" pageWidth="850" pageHeight="1100" math="0" shadow="0">
      <root>
        <mxCell id="0" />
        <mxCell id="1" parent="0" />
        <mxCell id="gcvIQrq7BiPkkwRm98u5-30" value="" style="rounded=0;whiteSpace=wrap;html=1;" vertex="1" parent="1">
          <mxGeometry y="130" width="850" height="600" as="geometry" />
        </mxCell>
        <mxCell id="gcvIQrq7BiPkkwRm98u5-14" value="" style="rounded=0;whiteSpace=wrap;html=1;fillColor=none;dashed=1;dashPattern=12 12;" vertex="1" parent="1">
          <mxGeometry x="520" y="150" width="310" height="560" as="geometry" />
        </mxCell>
        <mxCell id="gcvIQrq7BiPkkwRm98u5-17" value="AWP&lt;br&gt;on TomEE 8080" style="rounded=1;whiteSpace=wrap;html=1;" vertex="1" parent="1">
          <mxGeometry x="590" y="390" width="120" height="60" as="geometry" />
        </mxCell>
        <mxCell id="gcvIQrq7BiPkkwRm98u5-18" value="CARS&lt;br&gt;on OpenLDAP 6366" style="rounded=1;whiteSpace=wrap;html=1;" vertex="1" parent="1">
          <mxGeometry x="590" y="480" width="120" height="60" as="geometry" />
        </mxCell>
        <mxCell id="gcvIQrq7BiPkkwRm98u5-19" value="&lt;h1&gt;VM 2&lt;/h1&gt;&lt;p style=&quot;text-align: left;&quot;&gt;Hostname: awp_node2.23.4.com&lt;br&gt;IP: 192.168.56.103&lt;br&gt;Master 2 / Node 2&lt;br&gt;AWP instance name: defaultInst&lt;br&gt;http://192.168.56.103:8080/home/system&lt;br&gt;&lt;/p&gt;" style="text;html=1;strokeColor=none;fillColor=none;spacing=5;spacingTop=-20;whiteSpace=wrap;overflow=hidden;rounded=0;align=center;" vertex="1" parent="1">
          <mxGeometry x="555" y="160" width="240" height="130" as="geometry" />
        </mxCell>
        <mxCell id="gcvIQrq7BiPkkwRm98u5-20" value="File&lt;br&gt;storage" style="shape=cylinder3;whiteSpace=wrap;html=1;boundedLbl=1;backgroundOutline=1;size=15;" vertex="1" parent="1">
          <mxGeometry x="750" y="380" width="60" height="80" as="geometry" />
        </mxCell>
        <mxCell id="gcvIQrq7BiPkkwRm98u5-21" value="Replication&lt;br&gt;with LDIF config" style="endArrow=classic;startArrow=classic;html=1;rounded=0;" edge="1" parent="1" source="gcvIQrq7BiPkkwRm98u5-5" target="gcvIQrq7BiPkkwRm98u5-18">
          <mxGeometry width="50" height="50" relative="1" as="geometry">
            <mxPoint x="427" y="520" as="sourcePoint" />
            <mxPoint x="477" y="470" as="targetPoint" />
          </mxGeometry>
        </mxCell>
        <mxCell id="gcvIQrq7BiPkkwRm98u5-22" value="StateSynchUp&lt;br&gt;Instance name must be equal!" style="endArrow=classic;startArrow=classic;html=1;rounded=0;entryX=0;entryY=0.5;entryDx=0;entryDy=0;exitX=1;exitY=0.5;exitDx=0;exitDy=0;" edge="1" parent="1" source="gcvIQrq7BiPkkwRm98u5-4" target="gcvIQrq7BiPkkwRm98u5-17">
          <mxGeometry width="50" height="50" relative="1" as="geometry">
            <mxPoint x="427" y="520" as="sourcePoint" />
            <mxPoint x="477" y="470" as="targetPoint" />
          </mxGeometry>
        </mxCell>
        <mxCell id="gcvIQrq7BiPkkwRm98u5-7" value="" style="rounded=0;whiteSpace=wrap;html=1;fillColor=none;dashed=1;dashPattern=12 12;" vertex="1" parent="1">
          <mxGeometry x="17" y="150" width="310" height="560" as="geometry" />
        </mxCell>
        <mxCell id="gcvIQrq7BiPkkwRm98u5-2" value="Postgres&lt;br&gt;DB" style="shape=cylinder3;whiteSpace=wrap;html=1;boundedLbl=1;backgroundOutline=1;size=15;" vertex="1" parent="1">
          <mxGeometry x="37" y="310" width="60" height="80" as="geometry" />
        </mxCell>
        <mxCell id="gcvIQrq7BiPkkwRm98u5-3" value="OTDS&lt;br&gt;on Tomcat 8181" style="rounded=1;whiteSpace=wrap;html=1;" vertex="1" parent="1">
          <mxGeometry x="137" y="300" width="120" height="60" as="geometry" />
        </mxCell>
        <mxCell id="gcvIQrq7BiPkkwRm98u5-4" value="AWP&lt;br&gt;on TomEE 8080" style="rounded=1;whiteSpace=wrap;html=1;" vertex="1" parent="1">
          <mxGeometry x="137" y="390" width="120" height="60" as="geometry" />
        </mxCell>
        <mxCell id="gcvIQrq7BiPkkwRm98u5-5" value="CARS&lt;br&gt;on OpenLDAP 6366" style="rounded=1;whiteSpace=wrap;html=1;" vertex="1" parent="1">
          <mxGeometry x="137" y="480" width="120" height="60" as="geometry" />
        </mxCell>
        <mxCell id="gcvIQrq7BiPkkwRm98u5-9" value="&lt;h1&gt;VM 1&lt;/h1&gt;&lt;p style=&quot;text-align: left;&quot;&gt;Hostname: awp_node1.23.4.com&lt;br&gt;&lt;span style=&quot;background-color: initial;&quot;&gt;IP: 192.168.56.102&lt;br&gt;Master 1 / Node 1&lt;br&gt;AWP instance name: defaultInst&lt;br&gt;http://192.168.56.102:8080/home/system&lt;br&gt;&lt;/span&gt;&lt;/p&gt;" style="text;html=1;strokeColor=none;fillColor=none;spacing=5;spacingTop=-20;whiteSpace=wrap;overflow=hidden;rounded=0;align=center;" vertex="1" parent="1">
          <mxGeometry x="52" y="160" width="240" height="130" as="geometry" />
        </mxCell>
        <mxCell id="gcvIQrq7BiPkkwRm98u5-10" value="File&lt;br&gt;storage" style="shape=cylinder3;whiteSpace=wrap;html=1;boundedLbl=1;backgroundOutline=1;size=15;" vertex="1" parent="1">
          <mxGeometry x="37" y="450" width="60" height="80" as="geometry" />
        </mxCell>
        <mxCell id="gcvIQrq7BiPkkwRm98u5-24" value="" style="endArrow=classic;startArrow=classic;html=1;rounded=0;entryX=0.5;entryY=1;entryDx=0;entryDy=0;" edge="1" parent="1" source="gcvIQrq7BiPkkwRm98u5-5" target="gcvIQrq7BiPkkwRm98u5-4">
          <mxGeometry width="50" height="50" relative="1" as="geometry">
            <mxPoint x="427" y="520" as="sourcePoint" />
            <mxPoint x="477" y="470" as="targetPoint" />
          </mxGeometry>
        </mxCell>
        <mxCell id="gcvIQrq7BiPkkwRm98u5-25" value="" style="endArrow=classic;startArrow=classic;html=1;rounded=0;entryX=0.5;entryY=1;entryDx=0;entryDy=0;" edge="1" parent="1" source="gcvIQrq7BiPkkwRm98u5-4" target="gcvIQrq7BiPkkwRm98u5-3">
          <mxGeometry width="50" height="50" relative="1" as="geometry">
            <mxPoint x="427" y="520" as="sourcePoint" />
            <mxPoint x="477" y="470" as="targetPoint" />
          </mxGeometry>
        </mxCell>
        <mxCell id="gcvIQrq7BiPkkwRm98u5-26" value="" style="endArrow=classic;startArrow=classic;html=1;rounded=0;" edge="1" parent="1" source="gcvIQrq7BiPkkwRm98u5-4" target="gcvIQrq7BiPkkwRm98u5-2">
          <mxGeometry width="50" height="50" relative="1" as="geometry">
            <mxPoint x="427" y="520" as="sourcePoint" />
            <mxPoint x="477" y="470" as="targetPoint" />
          </mxGeometry>
        </mxCell>
        <mxCell id="gcvIQrq7BiPkkwRm98u5-27" value="" style="endArrow=classic;startArrow=classic;html=1;rounded=0;" edge="1" parent="1" source="gcvIQrq7BiPkkwRm98u5-10" target="gcvIQrq7BiPkkwRm98u5-4">
          <mxGeometry width="50" height="50" relative="1" as="geometry">
            <mxPoint x="427" y="520" as="sourcePoint" />
            <mxPoint x="477" y="470" as="targetPoint" />
          </mxGeometry>
        </mxCell>
        <mxCell id="gcvIQrq7BiPkkwRm98u5-28" value="" style="endArrow=classic;startArrow=classic;html=1;rounded=0;" edge="1" parent="1" source="gcvIQrq7BiPkkwRm98u5-20" target="gcvIQrq7BiPkkwRm98u5-17">
          <mxGeometry width="50" height="50" relative="1" as="geometry">
            <mxPoint x="390" y="520" as="sourcePoint" />
            <mxPoint x="440" y="470" as="targetPoint" />
          </mxGeometry>
        </mxCell>
      </root>
    </mxGraphModel>
  </diagram>
</mxfile>
